
<svg xmlns="http://www.w3.org/2000/svg" version="1.1" xmlns:xlink="http://www.w3.org/1999/xlink" xmlns:svgjs="http://svgjs.dev/svgjs" width="1440" height="560" preserveAspectRatio="none" viewBox="0 0 1440 560"><g mask="url(&quot;#SvgjsMask4913&quot;)" fill="none"><rect width="1440" height="560" x="0" y="0" fill="url(&quot;#SvgjsLinearGradient4914&quot;)"></rect><path d="M1440 0L1264.65 0L1440 73.13z" fill="rgba(255, 255, 255, .1)"></path><path d="M1264.65 0L1440 73.13L1440 167.47L1071.47 0z" fill="rgba(255, 255, 255, .075)"></path><path d="M1071.47 0L1440 167.47L1440 281.08L893.27 0z" fill="rgba(255, 255, 255, .05)"></path><path d="M893.27 0L1440 281.08L1440 381.33L565.91 0z" fill="rgba(255, 255, 255, .025)"></path><path d="M0 560L379.95 560L0 539.06z" fill="rgba(0, 0, 0, .1)"></path><path d="M0 539.06L379.95 560L690.86 560L0 388.7299999999999z" fill="rgba(0, 0, 0, .075)"></path><path d="M0 388.73L690.86 560L820.47 560L0 163.15z" fill="rgba(0, 0, 0, .05)"></path><path d="M0 163.14999999999998L820.47 560L897.19 560L0 157.09999999999997z" fill="rgba(0, 0, 0, .025)"></path></g><defs><mask id="SvgjsMask4913"><rect width="1440" height="560" fill="#ffffff"></rect></mask><linearGradient x1="0%" y1="50%" x2="100%" y2="50%" gradientUnits="userSpaceOnUse" id="SvgjsLinearGradient4914"><stop stop-color="rgba(0, 0, 0, 1)" offset="0.1"></stop><stop stop-color="rgba(202, 185, 134, 1)" offset="0.81"></stop><stop stop-color="rgba(255, 209, 139, 1)" offset="1"></stop></linearGradient></defs></svg>